<svg width="834" height="782" fill="none" xmlns="http://www.w3.org/2000/svg"><path d="M51.504 116.435c10.742-39.202 42.213-68.665 81.927-77.324C206.739 23.127 330.219 0 431 0c98.384 0 220.849 22.04 296.471 37.958 43.583 9.175 76.969 43.141 84.149 87.096C819.577 173.769 828.848 244.881 833 330c4.955 101.572-9.653 250.709-21.493 349.531C804.438 738.54 754.017 782 694.587 782H147.319c-47.083 0-89.716-27.615-103.604-72.602C26.6 653.952 6.47 570.456 1 472c-6.827-122.883 27.826-272.798 50.504-355.565z" fill="#CCF0E6"/></svg>