<svg width="16" height="14" viewBox="0 0 16 14" fill="none" xmlns="http://www.w3.org/2000/svg">
<path d="M13.1417 1.28577H2.85603C1.59366 1.28577 0.570312 2.30912 0.570312 3.57148V10.4286C0.570312 11.691 1.59366 12.7143 2.85603 12.7143H13.1417C14.4041 12.7143 15.4275 11.691 15.4275 10.4286V3.57148C15.4275 2.30912 14.4041 1.28577 13.1417 1.28577Z" stroke="#7B7B7C" stroke-linecap="round" stroke-linejoin="round"/>
<path d="M6.0666 9.65153V4.85153C6.06421 4.77049 6.08398 4.69034 6.12376 4.6197C6.16354 4.54906 6.22184 4.4906 6.29238 4.45063C6.36291 4.41066 6.44301 4.39069 6.52406 4.39286C6.6051 4.39503 6.68402 4.41927 6.75231 4.46296L10.8666 6.86296C10.9353 6.90329 10.9923 6.9609 11.032 7.03006C11.0716 7.09922 11.0924 7.17754 11.0924 7.25724C11.0924 7.33694 11.0716 7.41526 11.032 7.48443C10.9923 7.55359 10.9353 7.61119 10.8666 7.65153L6.75231 10.0515C6.68252 10.0918 6.60331 10.113 6.52271 10.1128C6.44212 10.1126 6.363 10.0911 6.29338 10.0505C6.22377 10.0099 6.16612 9.95161 6.1263 9.88154C6.08647 9.81147 6.06587 9.73212 6.0666 9.65153V9.65153Z" stroke="#7B7B7C" stroke-linecap="round" stroke-linejoin="round"/>
</svg>
