<?xml version="1.0" standalone="no"?>
<!DOCTYPE svg PUBLIC "-//W3C//DTD SVG 1.1//EN" "http://www.w3.org/Graphics/SVG/1.1/DTD/svg11.dtd" >
<svg xmlns="http://www.w3.org/2000/svg" xmlns:xlink="http://www.w3.org/1999/xlink" version="1.1">
<metadata>
Created by FontForge 20170731 at Wed Feb 19 12:05:17 2020
 By Aleksey,,,
</metadata>
<defs>
<font id="OttoAttacType-Regular" horiz-adv-x="600" >
  <font-face 
    font-family="Otto Attac Type"
    font-weight="400"
    font-stretch="normal"
    units-per-em="1000"
    panose-1="0 0 0 0 0 0 0 0 0 0"
    ascent="800"
    descent="-200"
    x-height="500"
    cap-height="800"
    bbox="-64 -424 1543 803.286"
    underline-thickness="50"
    underline-position="-175"
    unicode-range="U+000D-2212"
  />
<missing-glyph horiz-adv-x="500" 
 />
    <glyph glyph-name=".notdef" horiz-adv-x="500" 
 />
    <glyph glyph-name=".null" horiz-adv-x="0" 
 />
    <glyph glyph-name=".null" horiz-adv-x="0" 
 />
    <glyph glyph-name="uni000D" unicode="&#xd;" horiz-adv-x="250" 
 />
    <glyph glyph-name="space" unicode=" " horiz-adv-x="450" 
 />
    <glyph glyph-name="exclam" unicode="!" horiz-adv-x="167" 
d="M10 236q11 -23 20.5 -36.5t26.5 -13.5q9 0 16 8t7 31v575h57v-579q0 -18 -5 -32q-5 -13 -14.5 -23t-29.5 -10q-19 0 -32 8.5t-21.5 21t-14 26.5t-10.5 24zM52 53q0 21 15.5 36.5t38.5 15.5q20 0 35.5 -15.5t15.5 -36.5q0 -23 -15.5 -38t-35.5 -15q-23 0 -38.5 15
t-15.5 38z" />
    <glyph glyph-name="quotedbl" unicode="&#x22;" 
d="M172 700q5 -2 14 -15.5t18.5 -35.5t16.5 -51.5t7 -63.5q0 -21 -11.5 -36t-24 -23.5t-20 -10.5t0.5 3q20 12 33 29.5t13 52.5q0 26 -12.5 43t-27.5 30.5t-27.5 27.5t-12.5 35q0 20 16 20q7 0 17 -5zM43 700q5 -2 14 -15.5t18.5 -35.5t16.5 -51.5t7 -63.5q0 -21 -11.5 -36
t-24 -23.5t-20 -10.5t0.5 3q20 12 33 29.5t13 52.5q0 26 -12.5 43t-27.5 30.5t-27.5 27.5t-12.5 35q0 20 16 20q7 0 17 -5z" />
    <glyph glyph-name="quotesingle" unicode="'" horiz-adv-x="109" 
d="M43 700q5 -2 14 -15.5t18.5 -35.5t16.5 -51.5t7 -63.5q0 -21 -11.5 -36t-24 -23.5t-20 -10.5t0.5 3q20 12 33 29.5t13 52.5q0 26 -12.5 43t-27.5 30.5t-27.5 27.5t-12.5 35q0 20 16 20q7 0 17 -5z" />
    <glyph glyph-name="parenleft" unicode="(" horiz-adv-x="428" 
d="M136 508q48 48 113 69t139 26v-6h-21q-50 0 -98 -27.5t-85 -74t-59.5 -108.5t-22.5 -131q0 -73 24.5 -137t65 -111.5t91.5 -74.5t104 -27h1v-4q-66 7 -126 32.5t-112 77.5q-55 55 -82.5 123t-27.5 138q0 65 23.5 125.5t72.5 109.5z" />
    <glyph glyph-name="parenright" unicode=")" horiz-adv-x="428" 
d="M40 -99h1q53 0 104 27t91.5 74.5t65 111.5t24.5 137q0 69 -22.5 131t-59.5 108.5t-85 74t-98 27.5h-21v6q74 -5 139 -26t113 -69q49 -49 72.5 -109.5t23.5 -125.5q0 -70 -28 -137.5t-82 -123.5q-51 -52 -111.5 -77.5t-126.5 -32.5v4z" />
    <glyph glyph-name="asterisk" unicode="*" horiz-adv-x="134" 
d="M32 656h4l-7 7q-5 5 -13 8l36 5l2 -2v10q0 9 -3 16l29 -22v-4l7 7q6 6 9 14l5 -37l-2 -2h9q9 0 16 3l-22 -29h-3l6 -7q3 -4 6.5 -5.5t7.5 -3.5l-37 -5l-2 2v-9q2 -10 4 -16l-30 22v3l-6 -7q-2 -3 -4.5 -6t-4.5 -7l-5 36l2 3h-10q-4 -1 -7.5 -1.5t-8.5 -2.5z" />
    <glyph glyph-name="plus" unicode="+" 
 />
    <glyph glyph-name="comma" unicode="," horiz-adv-x="107" 
d="M43 70q5 -2 14 -15.5t18.5 -35.5t16.5 -51.5t7 -63.5q0 -21 -11.5 -36t-24 -23.5t-20 -10.5t0.5 3q20 12 33 29.5t13 52.5q0 26 -12.5 43t-27.5 30.5t-27.5 27.5t-12.5 35q0 20 16 20q7 0 17 -5z" />
    <glyph glyph-name="period" unicode="." horiz-adv-x="98" 
d="M10 39q0 16 11.5 27.5t28.5 11.5q15 0 26.5 -11.5t11.5 -27.5q0 -17 -11.5 -28t-26.5 -11q-17 0 -28.5 11t-11.5 28z" />
    <glyph glyph-name="slash" unicode="/" 
d="M294 700h80q-25 -17 -37 -45l-248 -632q-4 -7 0 -12t18 -5h33v-6l-130 1z" />
    <glyph glyph-name="colon" unicode=":" horiz-adv-x="98" 
d="M10 461q0 16 11.5 27.5t28.5 11.5q15 0 26.5 -11.5t11.5 -27.5q0 -17 -11.5 -28t-26.5 -11q-17 0 -28.5 11t-11.5 28zM50 78q15 0 26.5 -11.5t11.5 -27.5q0 -17 -11.5 -28t-26.5 -11q-17 0 -28.5 11t-11.5 28q0 16 11.5 27.5t28.5 11.5z" />
    <glyph glyph-name="semicolon" unicode=";" horiz-adv-x="127" 
d="M28 55q0 20 16 20q7 0 17 -5q5 -2 14 -12.5t18.5 -29t16.5 -44.5t7 -60q0 -21 -8.5 -37.5t-19 -27.5t-19 -16.5l-8.5 -5.5q8 8 16.5 15.5t15 16.5t10.5 20.5t4 29.5q0 26 -12.5 43t-27.5 30.5t-27.5 27.5t-12.5 35zM10 461q0 16 11.5 27.5t28.5 11.5q15 0 26.5 -11.5
t11.5 -27.5q0 -17 -11.5 -28t-26.5 -11q-17 0 -28.5 11t-11.5 28z" />
    <glyph glyph-name="question" unicode="?" horiz-adv-x="526" 
d="M255 0q-23 0 -38.5 15t-15.5 38q0 21 15.5 36.5t38.5 15.5q20 0 35.5 -15.5t15.5 -36.5q0 -23 -15.5 -38t-35.5 -15zM237 156q-19 0 -32 8.5t-21.5 21t-14 26.5t-10.5 24q11 -23 20.5 -36.5t26.5 -13.5q9 0 16 8t7 31v139q-13 0 -26 1t-23.5 3.5t-17 7t-6.5 10.5
q0 8 22.5 22t56.5 32.5t73.5 40.5t73.5 47t56.5 51.5t22.5 54.5q0 19 -9 37.5t-24 34.5t-33.5 27t-37.5 14q-14 2 -26.5 3.5t-25.5 1.5q-59 0 -112 -22.5t-92.5 -61.5t-63 -92t-23.5 -113q-1 4 -2 9t-1.5 10.5t-0.5 12.5q0 84 21.5 152.5t79.5 112.5q28 21 59.5 30.5
t64.5 9.5q56 0 109 -25t89.5 -66.5t49 -94t-12.5 -107.5q-13 -28 -38 -48t-56 -33.5t-64 -21t-62 -11.5t-50.5 -5.5t-29.5 -2.5l116 -8v-156q0 -18 -5 -32q-5 -13 -14.5 -23t-29.5 -10z" />
    <glyph glyph-name="A" unicode="A" horiz-adv-x="648" 
d="M19 143l231 565q-8 21 -14 35.5t-12 24.5t-13.5 17.5t-18.5 14.5h91l191 -467q10 -5 19 -11.5t20 -14.5q-16 12 -34 13l129 -320h-149v8h38q28 0 21 19l-106 271q-17 -12 -34.5 -28.5t-46.5 -45.5t-74.5 -75.5t-119.5 -119.5q-8 -8 -17 -14q-8 -6 -19 -10.5t-23 -4.5
q-21 0 -36.5 15.5t-23.5 37.5t-8 47t9 43zM22 104q0 -19 8 -30t22 -11q18 0 38 19l132 132q47 48 103 104q8 6 19 12q8 5 20.5 9t27.5 6l-137 351q-70 -170 -115 -278t-71.5 -172.5t-36.5 -95.5t-10 -46z" />
    <glyph glyph-name="B" unicode="B" horiz-adv-x="646" 
d="M19 803h305q14 1 32 -1.5t36 -8t34 -13.5t27 -19q21 -21 31.5 -47.5t10.5 -54.5q0 -39 -15.5 -69t-41 -51t-59 -32t-69.5 -11h59q46 2 89.5 -15.5t79.5 -52.5q34 -33 51 -76t17 -89q0 -52 -21 -100t-56.5 -84t-82.5 -57.5t-100 -21.5h-240q-24 0 -40 10.5t-26.5 25.5
t-17 32.5t-12.5 30.5q3 -7 7.5 -16.5t10 -18.5t11 -16t11.5 -9q9 -3 17 -3q12 0 20.5 10t9.5 39v714h-45q-21 0 -42 -9zM361 5q37 -1 68.5 18t55 53t36.5 79.5t13 97.5q0 49 -11.5 92t-32.5 75.5t-50.5 51t-65.5 19.5h-206v-411q0 -16 -4 -31q-3 -13 -10.5 -25t-22.5 -19
h230zM168 800v-300h151q23 0 42 11.5t33 32t21.5 48.5t7.5 61q0 30 -6.5 56.5t-19 46.5t-30.5 31.5t-40 12.5h-159z" />
    <glyph glyph-name="C" unicode="C" horiz-adv-x="803" 
d="M10 425q0 73 27 142t82 124q32 32 71 52.5t83 33.5t92.5 18t97.5 5q78 0 155 -9.5t145 -20.5l-72 -264q4 23 4 51q0 83 -31.5 130t-79 70.5t-102 29t-100.5 4.5q-57 -1 -111.5 -32t-97 -83.5t-68 -122t-25.5 -149.5q0 -82 27.5 -154t72 -125.5t101.5 -84.5t116 -31
q46 0 100 20t103.5 55.5t87.5 84.5t51 107l-13 -219q-66 -26 -133.5 -41.5t-135.5 -15.5q-89 0 -171 29.5t-151 98.5q-63 63 -94 140t-31 157z" />
    <glyph glyph-name="D" unicode="D" horiz-adv-x="818" 
d="M53 733l-22 -4t-21 -6l50 77h354q78 -3 145 -36.5t115.5 -88.5t76 -126t27.5 -148q0 -83 -29.5 -155.5t-80.5 -126.5t-119.5 -85.5t-146.5 -31.5q-30 0 -61.5 7t-62.5 19t-59.5 27.5t-51.5 31.5q0 -3 -1.5 -17t-7.5 -29.5t-18 -28t-33 -12.5q-24 0 -40.5 10.5t-27 25.5
t-17 32t-12.5 31q13 -29 24.5 -46.5t33.5 -18.5q11 0 19.5 10.5t9.5 40.5v648h-44zM167 733v-633q28 -18 61.5 -27t69.5 -9q120 0 202.5 33t133.5 92t74 140t24 176q-1 88 -47 148.5t-132 77.5z" />
    <glyph glyph-name="E" unicode="E" horiz-adv-x="650" 
d="M10 99q11 -26 24 -45.5t35 -19.5q11 0 19.5 11t8.5 40v31.5t0.5 74t0.5 102.5v117.5v119.5t-0.5 108t-0.5 83.5v45.5q-5 1 -9 1.5t-8 0.5q-15 0 -29.5 -5.5t-28.5 -19.5q19 19 38.5 30.5t36.5 16.5h-40q-9 0 -18.5 -2.5t-18.5 -4.5l44 16h546l-90 -71l-5 3l33 28q1 2 3 4
t2 3q6 12 -3.5 18t-18.5 6h-351q24 -9 52 -32.5t62 -58t75 -77.5t91 -90q22 -21 38 -21q10 0 15.5 7t10.5 16q6 12 2.5 31t-6.5 31q0 2 2 3.5t5 -0.5q3 -5 8 -20.5t5 -35.5q-1 -38 -18.5 -65.5t-48.5 -27.5q-12 0 -23 4.5t-19 10.5q-10 6 -19 14q-37 38 -79.5 80.5t-78.5 79
t-60 60.5t-25 24v-644q0 -14 -3 -27q-3 -11 -9 -23t-17 -20h391q12 0 19.5 8t2.5 19q-1 2 -3 4.5t-5.5 6.5t-10.5 10.5t-19 18.5l5 5l90 -82h-505q-21 0 -36 9t-25.5 23.5t-18.5 32t-15 34.5z" />
    <glyph glyph-name="F" unicode="F" horiz-adv-x="620" 
d="M10 98q11 -25 24.5 -44.5t33.5 -19.5q12 0 20.5 11t8.5 41v31.5t0.5 73.5t0.5 102v117v119t-0.5 108.5t-0.5 84v45.5q-5 1 -9 1.5t-8 0.5q-15 0 -30 -5.5t-29 -19.5q20 19 39.5 30.5t36.5 16.5h-40q-9 0 -18.5 -2.5t-18.5 -4.5l44 16h546l-90 -71l-5 4l33 27q1 2 3 4t2 3
q6 13 -3.5 18.5t-18.5 5.5h-351q24 -9 52.5 -32t62.5 -57t75 -77t89 -91q22 -22 39 -22q10 0 15.5 7t10.5 16q6 12 2.5 31.5t-6.5 30.5q0 2 2 3.5t5 -0.5q3 -5 7.5 -20.5t4.5 -35.5q0 -38 -17.5 -65.5t-48.5 -27.5q-12 0 -23 4.5t-19 10.5q-10 6 -19 14q-25 25 -52.5 53
t-54.5 55l-51.5 51.5l-43 43l-29.5 29.5t-12 11v-643q0 -45 -13.5 -62.5t-50.5 -17.5q-21 0 -36 9t-25.5 23.5t-18.5 32t-15 33.5z" />
    <glyph glyph-name="G" unicode="G" horiz-adv-x="815" 
d="M10 424q0 94 33.5 164.5t93.5 117.5t143 70.5t182 23.5q78 0 155 -9.5t146 -20.5l-70 -265q11 80 -7 135t-59.5 89.5t-104 49t-141.5 12.5q-58 -1 -112 -32.5t-96 -84t-67.5 -122.5t-25.5 -150q0 -81 27 -151t71.5 -122t101.5 -83.5t117 -36.5q147 -10 210 60.5t62 227.5
h-41t-50 -2q-24 0 -46 -4.5t-39.5 -15t-27.5 -27.5t-10 -41q0 36 11.5 61.5t30 43t40.5 28.5t43 16.5t38 7.5t25 2h39t31.5 2.5t21 8.5t7.5 17q0 23 -17 39t-32 20q-3 1 -2 4t3 3q16 0 33 -15t29.5 -36t17 -43t-4.5 -36q-20 -29 -27.5 -64.5t-8.5 -70.5l-7 -140
q-14 -6 -28 -10.5t-28 -8.5q-107 -35 -213 -35q-95 0 -177 32.5t-142 89t-94 134t-34 167.5z" />
    <glyph glyph-name="H" unicode="H" horiz-adv-x="660" 
d="M10 787l10 13h149v-236h368v194q-1 11 -3.5 21t-5.5 21l78 -60v-176h109l-90 -70l-6 4q20 17 30.5 25t10.5 16t-8 12.5t-17 4.5h-29v-556h-132l4 6h30q16 0 22.5 13.5t6.5 36.5v500h-368v-205v-136.5v-82v-41v-13t0 0.5q0 -3 -1 -16t-7 -27t-18.5 -25t-35.5 -11
q-24 0 -40 10.5t-27 25.5t-17.5 32t-12.5 30q13 -26 24 -44.5t34 -18.5q12 0 20.5 10.5t9.5 39.5v711h-45q-22 0 -43 -9z" />
    <glyph glyph-name="I" unicode="I" horiz-adv-x="184" 
d="M15 6h30q17 0 23 13t6 36l-1 702q-1 22 -9 43l80 -61v-739h-134z" />
    <glyph glyph-name="J" unicode="J" horiz-adv-x="207" 
d="M10 98q3 -7 7.5 -16.5t10 -18t11 -15.5t11.5 -9q8 -5 18 -5q11 0 20 11t9 40v712h-32q-11 -2 -21.5 -4.5t-19.5 -6.5l9 14h134v-720q0 -22 -6 -40q-5 -15 -17.5 -27.5t-36.5 -12.5t-40 10.5t-27 25.5t-17.5 32t-12.5 30z" />
    <glyph glyph-name="K" unicode="K" horiz-adv-x="646" 
d="M10 786l10 14h149v-331h78q71 70 121 120t84 83.5t54 53.5t31 31.5t14 15.5t3 7q0 13 -23 13h-39v7h114v-7q-17 0 -31.5 -10.5t-25.5 -21.5l-299 -297l356 -464h-149v7h37q17 0 21.5 6t0.5 14l-312 407q-15 18 -35 32v-386q-1 -22 -7 -40q-6 -15 -18.5 -27.5t-36.5 -12.5
t-40 10.5t-27 25.5t-17.5 32t-12.5 30q3 -7 7.5 -16.5t9.5 -18.5t11 -16t12 -9q5 -2 9 -3t9 -1q12 0 20.5 10.5t8.5 40.5v711h-44q-11 -1 -22 -3t-21 -7z" />
    <glyph glyph-name="L" unicode="L" horiz-adv-x="641" 
d="M50 39q5 -2 9.5 -3.5t8.5 -1.5q11 0 19.5 11t9.5 40v712h-32q-11 -2 -21.5 -4.5t-19.5 -6.5l9 14h134v-720q0 -15 -3 -28q-2 -11 -8.5 -23.5t-18.5 -20.5h384q8 0 14 3q14 7 9 21q-1 2 -2.5 3.5t-2.5 3.5l-35 27l7 4l90 -70h-497q-21 0 -35.5 9t-25.5 23.5t-19 32
t-14 33.5q6 -14 17.5 -34t22.5 -25z" />
    <glyph glyph-name="M" unicode="M" horiz-adv-x="876" 
d="M10 800h92l320 -791l339 758q8 14 2 20.5t-17 6.5h-37v6h127q0 -148 -0.5 -272.5t-0.5 -218.5t0.5 -152.5t0.5 -75.5q0 -22 -7 -40q-5 -15 -17.5 -27.5t-36.5 -12.5t-40 10t-27 25t-17.5 32t-12.5 31q3 -7 7.5 -16t10 -18t11 -16t11.5 -10q8 -3 16.5 -4t15.5 3.5t11 15.5
t4 32v676l-339 -761l-149 -2v8h38q16 0 20.5 5.5t0.5 13.5q-7 19 -23.5 60.5t-38 96t-46.5 117.5l-50 126t-48 121.5t-41 104t-28.5 72.5t-10.5 28v-720q2 -10 9 -17.5t26 -7.5h37v-6h-112v6q15 0 22.5 9t7.5 23v730q-5 10 -13 17.5t-17 13.5z" />
    <glyph glyph-name="N" unicode="N" horiz-adv-x="652" 
d="M10 0v7q17 0 24 9.5t7 21.5v731q-6 8 -13.5 16.5t-17.5 14.5h91l470 -784l1 752q-1 9 -8.5 16.5t-25.5 7.5h-38v8h112v-8q-16 0 -23.5 -9t-7.5 -22v-761h-148v7h37q16 0 21 5.5t0 13.5q-99 163 -180 296.5t-139 228.5t-89.5 147.5l-31.5 52.5v-720q1 -9 8.5 -16.5
t25.5 -7.5h38v-7h-113z" />
    <glyph glyph-name="O" unicode="O" horiz-adv-x="802" 
d="M10 399q0 83 29.5 156t80.5 127.5t120 86t147 31.5t146 -31.5t119 -86t80.5 -127.5t29.5 -156q0 -82 -29.5 -155t-80.5 -127t-119 -85.5t-146 -31.5t-147 31.5t-120 85.5t-80.5 127t-29.5 155zM45 326q0 -62 18.5 -112t53 -85.5t84 -55t111.5 -19.5q85 0 160 34t131.5 91
t89.5 133t33 160q0 62 -18.5 112.5t-53 85.5t-84 54t-111.5 19q-84 0 -159.5 -33.5t-132 -91t-89.5 -133t-33 -159.5z" />
    <glyph glyph-name="P" unicode="P" horiz-adv-x="644" 
d="M10 786l10 14h346q50 0 93 -17.5t75.5 -48.5t51 -73.5t18.5 -92.5t-19 -99t-60 -87q-39 -38 -85 -58t-94 -20h-177v-224q-1 -22 -7 -40q-6 -15 -18.5 -27.5t-36.5 -12.5t-40 10.5t-27 25.5t-17.5 32.5t-12.5 31.5q7 -13 12.5 -24.5t11.5 -20t14 -14t20 -5.5
q11 1 20.5 10.5t9.5 38.5v711h-45q-23 -3 -43 -10zM361 308q37 0 68 19.5t54 53t36 78.5t13 96q0 50 -11.5 93.5t-32 75.5t-50 51t-65.5 19h-204v-486h192z" />
    <glyph glyph-name="Q" unicode="Q" horiz-adv-x="842" 
d="M387 800q78 0 146 -31.5t119 -86t80.5 -127.5t29.5 -156q0 -76 -24.5 -143t-68.5 -120q24 -25 40 -42t27.5 -27.5t19.5 -15t14 -4.5q14 0 19 10t5 22.5t-3.5 25.5t-6.5 19q5 -8 8.5 -13t5.5 -10.5t3 -11.5t1 -17q0 -29 -15 -51t-37 -22q-11 0 -19 2.5t-19 13t-28 31.5
t-45 58q-51 -49 -115 -76.5t-137 -27.5q-78 0 -147 31.5t-120 85.5t-80.5 127t-29.5 155q0 83 29.5 156t80.5 127.5t120 86t147 31.5zM45 326q0 -62 18.5 -112t53 -85.5t84 -55t111.5 -19.5q72 0 145 27.5t134 84.5l-76 100q10 -2 17.5 -5t12.5 -6q6 -3 11 -7l59 -58
q57 62 84 136t27 146q0 62 -18.5 112.5t-53 85.5t-84 54t-111.5 19q-84 0 -159.5 -33.5t-132 -91t-89.5 -133t-33 -159.5z" />
    <glyph glyph-name="R" unicode="R" horiz-adv-x="645" 
d="M10 787l9 12h348q47 2 90.5 -15t78.5 -52q34 -34 50.5 -76.5t16.5 -87.5q0 -42 -13.5 -81.5t-38 -73t-58.5 -58.5t-74 -38l186 -316l-148 -1v7h37q16 0 20.5 5.5t0.5 13.5l-170 280h-177v-225q0 -23 -7 -40q-5 -16 -17.5 -28.5t-36.5 -12.5t-40 10.5t-27 25.5t-17.5 32.5
t-12.5 30.5q12 -26 24.5 -45t34.5 -19q11 0 19 11t9 40v710h-44q-22 0 -43 -9zM168 795v-482h191q38 -1 69.5 17.5t54.5 52t35.5 79.5t12.5 98q0 48 -11.5 90.5t-32.5 74.5t-50 50.5t-64 19.5h-205z" />
    <glyph glyph-name="S" unicode="S" horiz-adv-x="581" 
d="M89 723q45 45 108 61t133 16q54 0 108.5 -6.5t102.5 -14.5l-50 -186q5 57 -6.5 96t-39.5 62.5t-71 33.5t-100 9q-39 -1 -71 -21t-55.5 -54.5t-37.5 -80t-16 -98.5q68 20 134 20q46 0 88.5 -11t78.5 -32t64.5 -51.5t47.5 -68.5q17 -33 25.5 -68.5t8.5 -65.5
q0 -52 -19 -100.5t-57 -86.5q-45 -45 -108 -60.5t-133 -15.5q-55 0 -109.5 6.5t-102.5 14.5l50 185q-5 -57 6.5 -95.5t39 -62t70 -33t99.5 -8.5q39 1 71 20.5t56 53.5t38 80t17 98q1 15 -0.5 37.5t-3.5 35.5q-6 47 -22.5 87.5t-40.5 70t-55 46t-67 16.5q-31 0 -63 -12.5
t-62 -33.5t-56 -47.5t-43 -55.5q-4 7 -7.5 13.5t-5.5 13.5q-13 39 -17 79t3 78t24 73t46 63z" />
    <glyph glyph-name="T" unicode="T" horiz-adv-x="516" 
d="M606 800l-90 -70l-7 3q14 11 25.5 21.5t16 18.5t0 13t-24.5 5h-184v-791h-132l4 7h30q17 0 22.5 12.5t5.5 35.5v736h-182q-18 0 -23 -4.5t-0.5 -12.5t15.5 -18.5t25 -22.5l-7 -3l-90 70h596z" />
    <glyph glyph-name="U" unicode="U" horiz-adv-x="820" 
d="M-55 800h137v-326q0 -87 18.5 -169.5t57 -147t98 -103.5t142.5 -39q61 0 119.5 24t103.5 62v695h-34q-9 0 -19 -2.5t-21 -6.5l9 13h137l-1 -715q1 -26 7.5 -38.5t17.5 -12.5q28 0 63 64q-6 -14 -13 -31t-17.5 -32t-26.5 -25t-40 -10q-34 0 -48 25.5t-14 62.5
q-48 -40 -107.5 -63t-125.5 -23q-92 0 -172 42t-134 123q-16 25 -29.5 63.5t-23 81.5t-14.5 85.5t-5 74.5v324h-34q-9 0 -19 -2.5t-21 -6.5z" />
    <glyph glyph-name="V" unicode="V" horiz-adv-x="861" 
d="M104 800l319 -790l339 754q6 16 0.5 22t-16.5 6h-37v8h112v-8q-17 0 -33.5 -5t-22.5 -27l-338 -760v1l-150 -1v7h37q17 0 21.5 6t0.5 13l-283 722q-5 15 -17 28t-26 24h94z" />
    <glyph glyph-name="W" unicode="W" horiz-adv-x="1430" 
d="M103 800l321 -791q85 190 143.5 320t96.5 214.5t59 130.5t30.5 68t11.5 27.5t2 9.5q0 8 -6 11.5t-14 3.5h-37v6h113l321 -791l338 756q7 16 2 22.5t-16 6.5h-38v6h113v-6q-16 0 -29 -4t-27 -29l-339 -761h-150v8h38q15 0 20 5.5t0 12.5l-289 737l-339 -762l-150 -1v8h38
q16 0 20 5.5t1 12.5l-284 723q-7 15 -17 28.5t-26 22.5h93z" />
    <glyph glyph-name="X" unicode="X" 
d="M0 1v7q17 0 32.5 5t24.5 27l156 353l-143 355q-13 34 -42 52h92l146 -369l149 335q13 27 -15 27h-38v7h114v-7q-17 0 -32 -5t-26 -27l-148 -338l149 -372q12 -32 42 -51h-92l-153 384l-155 -349q-5 -12 -3 -19.5t18 -7.5h37v-7h-113z" />
    <glyph glyph-name="Y" unicode="Y" horiz-adv-x="498" 
d="M102 800l147 -369l149 335q6 14 1 20.5t-16 6.5h-38v7h113v-7q-16 0 -31 -5t-26 -27l-148 -338l15 -37l-1 -386h-132l4 6h30q17 0 23 13.5t6 36.5v331l-145 361q-7 16 -17.5 29.5t-25.5 22.5h92z" />
    <glyph glyph-name="Z" unicode="Z" horiz-adv-x="646" 
d="M10 782q4 2 6 2l44 16h546l-91 -71l-5 4l33 28q12 8 5.5 19t-22.5 11h-369l449 -791h-596l90 71l6 -5q-23 -19 -29.5 -23.5t-9.5 -10.5q-5 -10 3 -17t20 -7h415q18 5 10 18l-412 722q-8 13 -15 24t-17 19h-18q-10 0 -19 -2t-18 -5z" />
    <glyph glyph-name="backslash" unicode="\" horiz-adv-x="384" 
d="M90 700l284 -699l-130 -1v6h33q14 0 18 5t0 12l-248 632q-12 28 -37 45h80z" />
    <glyph glyph-name="underscore" unicode="_" horiz-adv-x="709" 
d="M10 55q0 21 9 34.5t21.5 23t27.5 15.5t27 11q-13 -6 -30 -15.5t-22 -19.5q-3 -7 -3.5 -14t3.5 -13t13 -10t27 -4h616v-61h-620q-20 0 -35 6q-13 5 -23.5 16t-10.5 31z" />
    <glyph glyph-name="a" unicode="a" horiz-adv-x="464" 
d="M234 500q32 0 58.5 -10t45.5 -28t29 -42.5t10 -53.5v-290q1 -26 8 -35.5t17 -9.5q20 0 31.5 18t20.5 39q-5 -12 -11 -27.5t-15.5 -29t-23.5 -22.5t-36 -9q-21 0 -32 11t-16 25q-6 15 -6 35v121q-6 -38 -24 -72.5t-42.5 -61t-52.5 -42.5t-55 -16q-34 0 -59 12.5t-40.5 32
t-23 44.5t-7.5 49q0 46 21 73.5t56.5 45.5t81 31.5t94.5 31.5q25 8 38 25t13 41q0 21 -3.5 41t-12 35.5t-23 25t-38.5 9.5q-49 0 -78.5 -13t-46.5 -31t-24 -36.5t-11 -29.5l-67 -13q9 8 16.5 28.5t28 42t62 38.5t117.5 17zM81 156q0 -19 5 -39t16 -35.5t28.5 -25.5t42.5 -10
q29 0 55 18t47 46q20 23 29.5 51.5t9.5 57.5v146q-8 -23 -25.5 -37.5t-39 -25t-45.5 -18.5t-46 -17.5t-39.5 -22t-26.5 -31.5q-11 -24 -11 -57z" />
    <glyph glyph-name="b" unicode="b" horiz-adv-x="569" 
d="M10 88q5 -13 15 -31t21 -23q8 -3 16 -3q10 0 17 9.5t8 35.5v573l28 28l21.5 21.5t13.5 14.5v-293q32 37 76.5 58.5t95.5 21.5q49 0 92 -19.5t75.5 -53.5t51 -79.5t18.5 -97.5t-18.5 -97.5t-51 -79.5t-75.5 -53.5t-92 -19.5q-51 0 -95.5 21.5t-76.5 58.5v-9q0 -20 -6 -35
q-5 -14 -15.5 -25t-32.5 -11t-36 9t-23.5 22.5t-15.5 29t-11 27.5zM150 85l9 -9q20 -20 45 -28.5t54 -8.5q51 0 99.5 24.5t87 63.5t62 88.5t23.5 99.5q0 32 -10.5 59.5t-31.5 48.5q-20 18 -45.5 27t-54.5 9q-48 0 -97.5 -23.5t-93.5 -68.5q-23 -24 -35 -55t-12 -64v-163z
" />
    <glyph glyph-name="c" unicode="c" horiz-adv-x="522" 
d="M10 264q0 48 16.5 90.5t51.5 77.5q40 40 96.5 54t119.5 14q49 0 97 -5.5t91 -12.5l-44 -166q1 9 1.5 16.5t0.5 14.5q0 53 -20 82.5t-49.5 44.5t-64 18.5t-63.5 2.5q-36 -1 -65.5 -20t-51 -51.5t-33 -76t-11.5 -93.5q0 -52 13 -97t35.5 -78.5t53.5 -52.5t68 -19
q29 0 61.5 13.5t62.5 36t54.5 52.5t37.5 63l-8 -138q-41 -16 -83.5 -25t-85.5 -9q-57 0 -108.5 18t-94.5 61q-39 39 -58.5 87t-19.5 98z" />
    <glyph glyph-name="d" unicode="d" 
d="M401 83v161q0 44 -22 81.5t-56 65t-76 43.5t-82 16q-28 0 -53 -8.5t-44 -25.5t-29.5 -43.5t-10.5 -61.5q0 -52 24.5 -101.5t63 -87.5t86 -61.5t93.5 -23.5q31 0 57.5 12t48.5 34zM455 0q-20 0 -31 11t-16 24.5t-6 25.5t-1 14q-16 -14 -36 -27.5t-42.5 -24t-46 -17
t-45.5 -6.5q-48 0 -90.5 19.5t-73.5 52.5t-49 78t-18 96t18 95.5t49 78t73.5 52.5t90.5 19q51 0 94.5 -21t75.5 -58v288l61 -63v-562q1 -26 8.5 -35.5t17.5 -9.5q17 0 29 17.5t21 38.5q-4 -12 -10 -27t-15.5 -28t-23 -22t-34.5 -9z" />
    <glyph glyph-name="e" unicode="e" horiz-adv-x="522" 
d="M10 250q0 52 18.5 97.5t51 79.5t75.5 53.5t92 19.5q51 0 96 -24.5t81 -60.5q4 -4 4 -10q0 -7 -4.5 -12.5t-12.5 -5.5h-270q-5 -5 -10 -9.5t-11 -9.5q-40 -42 -60.5 -90.5t-20.5 -93.5q0 -71 43.5 -109.5t112.5 -38.5q54 0 97 19.5t78 52t62.5 73.5t49.5 84v-15
q0 -52 -18.5 -97.5t-50.5 -79.5t-75 -53.5t-91 -19.5q-49 0 -92 19.5t-75.5 53.5t-51 79.5t-18.5 97.5zM147 393h255q9 0 13 8.5t-3 15.5q-23 28 -49.5 39t-52.5 11q-32 0 -61 -11.5t-52 -25.5q-27 -16 -50 -37z" />
    <glyph glyph-name="f" unicode="f" horiz-adv-x="589" 
d="M10 87q11 -29 25.5 -43.5t26.5 -14.5q11 0 17.5 11.5t6.5 34.5l2 411h-40q-8 -1 -16 -2.5t-16 -3.5l38 13h34q4 50 25 88.5t55.5 65t80.5 40t100 14.5q52 1 103.5 -5.5t96.5 -14.5l-44 -163l1 5q8 39 -2 71t-32 54.5t-54 34.5t-69 12q-45 0 -80 -15t-59.5 -42t-39 -64
t-19.5 -81h383l-79 -63l-4 5l29 25q12 11 3 18.5t-19 7.5h-314v-416q0 -2 -0.5 -13t-6 -24t-16.5 -23t-32 -10t-35 9t-23.5 22t-15.5 28.5t-11 27.5z" />
    <glyph glyph-name="g" unicode="g" horiz-adv-x="526" 
d="M10 -115q0 7 0.5 12.5t1.5 10.5t2 9q0 -60 23.5 -113t63 -92t92.5 -61.5t112 -22.5q13 0 25.5 1.5t26.5 3.5q19 3 37.5 14t33.5 27t24 34.5t9 37.5q0 27 -22.5 54t-56.5 52t-73.5 47t-73.5 40.5t-56.5 32.5t-22.5 22q0 14 11 13t31 -1q-39 8 -73.5 30.5t-59.5 54.5
t-39.5 72.5t-14.5 85.5q0 53 18.5 98.5t50.5 79t75 53t92 19.5q48 0 90.5 -19.5t74.5 -53t50.5 -79t18.5 -98.5q0 -46 -15 -87t-41 -74t-62 -55t-77 -30l-116 -8q8 -1 29.5 -2.5t50.5 -5.5t62 -11.5t64 -21t56 -33.5t38 -48q25 -55 12.5 -107.5t-49 -94t-89.5 -66.5
t-109 -25q-33 0 -64.5 9.5t-59.5 30.5q-58 44 -79.5 112.5t-21.5 152.5zM82 76q20 -19 44.5 -27.5t51.5 -8.5q50 0 102 24.5t91 66.5q32 34 52.5 73.5t27 78.5t-3 75.5t-38.5 64.5q-20 19 -44.5 27.5t-51.5 8.5q-50 0 -101.5 -25t-90.5 -67q-31 -33 -51.5 -72.5t-27 -79
t2.5 -76t37 -63.5z" />
    <glyph glyph-name="h" unicode="h" horiz-adv-x="566" 
d="M10 88q5 -9 10 -19t11 -18.5t14 -14t18 -5.5q11 0 18 9.5t8 35.5v562l63 62v-277q32 38 77 59t97 21q62 0 101 -21.5t61 -59t30 -87.5t8 -106l-1 -226q0 -3 -2 -3h-112q-3 0 -3 2t3 2h25q15 0 20.5 12.5t5.5 32.5v252q0 40 -7 75t-23 61.5t-42 41.5t-64 15q-28 0 -59 -11
t-56.5 -37.5t-42 -70.5t-16.5 -110v-199q0 -7 -2.5 -18t-8.5 -21.5t-16.5 -18.5t-27.5 -8q-21 0 -35.5 9.5t-24.5 23t-16 28.5t-11 27z" />
    <glyph glyph-name="i" unicode="i" horiz-adv-x="224" 
d="M10 0l4 6h27q25 0 25 43v413q-3 18 -9 38l71 -53l-2 -447h-116zM57 554q0 16 11.5 27.5t28.5 11.5q15 0 26.5 -11.5t11.5 -27.5q0 -17 -11.5 -28t-26.5 -11q-17 0 -28.5 11t-11.5 28z" />
    <glyph glyph-name="j" unicode="j" horiz-adv-x="149" 
d="M-40 -303q11 -24 23.5 -43t33.5 -19q11 0 19.5 10t8.5 39v38.5v92v128t-0.5 146t-0.5 146t-0.5 129t-0.5 94.5v42h69l2 -821q0 -22 -7 -39q-5 -15 -17.5 -27t-35.5 -12t-39 10t-26.5 24.5t-17 31t-11.5 30.5z" />
    <glyph glyph-name="k" unicode="k" horiz-adv-x="520" 
d="M10 88q10 -25 21.5 -41t30.5 -16q9 0 16.5 8.5t8.5 34.5v426q15 15 28 27q11 11 21.5 21t13.5 14v-369l68 69l-6 6q-13 19 -34 32l72 -1l3 -3l173 174q13 13 6 18.5t-19 5.5h-34v6h101v-6q-14 0 -27 -9t-24 -19l-174 -173l225 -293h-132v6h34q14 0 17.5 5.5t0.5 12.5
l-180 233l-70 -70v-116q0 -20 -6 -35q-5 -14 -15.5 -25t-32.5 -11t-36 9t-23.5 22.5t-15.5 29t-11 27.5z" />
    <glyph glyph-name="l" unicode="l" horiz-adv-x="167" 
d="M10 0l3 5h27q14 0 19 12t5 32l1 614q0 19 -8 38l70 -53l-1 -648h-116z" />
    <glyph glyph-name="m" unicode="m" horiz-adv-x="901" 
d="M10 88q5 -9 10 -19t11 -18.5t14 -14t18 -5.5q11 0 18 9.5t8 35.5v361l62 63v-79q32 37 76.5 58t96.5 21q50 0 91.5 -20.5t73.5 -59.5q32 38 76.5 59t96.5 21q59 0 97.5 -19.5t61 -55.5t31.5 -86t9 -111l-1 -225q0 -3 -3 -3h-111v4h26q14 0 19.5 12.5t5.5 32.5v250
q0 39 -7.5 74t-23.5 61.5t-41.5 42t-62.5 15.5q-21 0 -43 -6t-42.5 -19t-38.5 -34.5t-30 -53.5q0 5 1.5 -2.5t3 -22t4 -32t3.5 -32.5q3 -31 3 -62l-1 -225q0 -3 -2 -3h-111v4h25q14 0 19.5 12.5t5.5 32.5v250q0 40 -7 75t-22.5 61t-41 41t-63.5 15q-29 0 -59.5 -11.5
t-56 -38.5t-42 -72.5t-16.5 -114.5v-189q0 -6 -2.5 -17t-8.5 -21.5t-16.5 -18.5t-27.5 -8q-21 0 -35 9t-24 22.5t-16 29t-11 27.5z" />
    <glyph glyph-name="n" unicode="n" horiz-adv-x="561" 
d="M10 88l7 -14t8.5 -16t10 -14.5t10.5 -8.5q6 -3 13.5 -3.5t13.5 3t10 13.5t4 28v361q15 15 28 27l21.5 21.5t13.5 14.5v-79q32 37 76.5 58t95.5 21q55 0 97.5 -24t71.5 -63q9 -12 14.5 -33t9 -46.5t5 -53t1.5 -52.5l-1 -225q0 -3 -2 -3h-111v5h25q12 0 17.5 8.5t7 39t1 89
t-0.5 157.5q0 50 -11.5 87t-30.5 61t-43.5 36t-51.5 12q-30 0 -59.5 -14.5t-53.5 -43t-39.5 -71t-17.5 -97.5v-197q0 -2 -0.5 -13.5t-5 -24.5t-16 -23.5t-32.5 -10.5q-22 0 -36 9t-23.5 22.5t-15.5 29t-11 27.5z" />
    <glyph glyph-name="o" unicode="o" horiz-adv-x="522" 
d="M10 251q0 52 18.5 97.5t50.5 79.5t75 54t92 20t92 -20t75 -54t50.5 -79.5t18.5 -97.5t-18.5 -98t-50.5 -80t-75 -53.5t-92 -19.5t-92 19.5t-75 53.5t-50.5 80t-18.5 98zM39 184q0 -65 38.5 -105t103.5 -40q51 0 100 24.5t87.5 64t62 89t23.5 99.5q0 32 -10 58.5t-29 45.5
t-45 30t-58 11q-51 0 -100 -24t-87.5 -63.5t-62 -89t-23.5 -100.5z" />
    <glyph glyph-name="p" unicode="p" horiz-adv-x="602" 
d="M95 500q31 0 43.5 -21t12.5 -56q33 37 77.5 57t97.5 20q49 0 92 -20t75 -54t50.5 -79.5t18.5 -97.5q0 -51 -18.5 -96.5t-50.5 -79.5t-75 -53.5t-92 -19.5q-53 0 -97.5 22t-77.5 59v-505l-63 63v789q0 25 -8.5 34t-18.5 9q-20 0 -31 -17.5t-20 -37.5q5 11 10.5 25.5
t15 27.5t24 22t35.5 9zM151 250q0 -31 11.5 -62.5t37.5 -55.5q47 -42 95.5 -67t96.5 -25q32 0 58 10.5t45 30t29 46t10 57.5q0 45 -20 95t-62 92q-45 45 -95 71.5t-99 23.5q-28 -2 -53 -11.5t-44 -26.5l-10 -9v-169z" />
    <glyph glyph-name="q" unicode="q" horiz-adv-x="572" 
d="M246 500q53 0 97.5 -20t77.5 -57q0 35 12.5 56t43.5 21q21 0 35.5 -9t24 -22t15.5 -27.5t10 -25.5q-9 20 -20 37.5t-31 17.5q-10 0 -18.5 -9t-8.5 -34v-789l-63 -63v505q-33 -37 -77.5 -59t-97.5 -22q-49 0 -92 19.5t-75 53.5t-50.5 79.5t-18.5 96.5q0 52 18.5 97.5
t50.5 79.5t75 54t92 20zM38 184q0 -31 10 -57.5t29 -46t45 -30t58 -10.5q48 0 96.5 25t95.5 67q26 24 37.5 55.5t11.5 62.5v169l-10 9q-19 17 -44 26.5t-53 11.5q-49 3 -99 -23.5t-95 -71.5q-42 -42 -62 -92t-20 -95z" />
    <glyph glyph-name="r" unicode="r" horiz-adv-x="519" 
d="M10 0l4 5h27q14 0 19.5 12t5.5 32v413q-1 18 -8 38l69 -53v-27q32 37 76.5 58.5t95.5 21.5q28 0 59.5 -9.5t58.5 -25t44.5 -35.5t17.5 -41q0 -15 -6.5 -28t-18.5 -13q-20 0 -29.5 13.5t-16.5 30.5q-7 18 -11.5 36t-6.5 23q-8 17 -33 30.5t-58 13.5q-27 0 -56.5 -11
t-54 -36.5t-41.5 -67t-20 -103.5v-277h-117z" />
    <glyph glyph-name="s" unicode="s" horiz-adv-x="380" 
d="M10 13l31 117q-1 -6 -1 -12v-11q0 -37 14 -58t34.5 -31.5t44.5 -12.5t44 -2q24 1 42.5 14t31.5 34t20 49.5t8 60.5v18q-2 7 -2 14.5t-1 14.5q-7 60 -34 99.5t-74 37.5q-26 0 -53.5 -14.5t-50.5 -37.5q-11 -9 -18.5 -19.5t-14.5 -21.5l-9 18q-12 32 -12 65q0 32 12 62.5
t36 54.5q28 28 67 38t83 10q35 0 69 -4t63 -9l-30 -117q1 6 1 11v10q0 38 -14 59.5t-35 32t-45 13t-44 1.5q-48 -3 -73 -46t-27 -109q39 11 75 11q55 0 101 -26.5t70 -77.5l9 -19q12 -31 12 -65q0 -32 -11.5 -63t-36.5 -54q-28 -28 -67 -38t-83 -10q-35 0 -69 4t-63 9z" />
    <glyph glyph-name="t" unicode="t" horiz-adv-x="267" 
d="M10 425l103 138v-63h114q-39 -63 -114 -63v-361q1 -30 11 -39.5t31 -1.5q10 4 20 22t16 31q-5 -12 -11 -27t-15.5 -28.5t-24 -23t-35.5 -9.5t-32.5 11t-16.5 25q-6 15 -6 35v354h-40z" />
    <glyph glyph-name="u" unicode="u" horiz-adv-x="533" 
d="M11 498q0 2 3 2h110v-5h-25q-14 0 -19.5 -12t-5.5 -32v-249q0 -39 7.5 -74.5t24 -61.5t42 -41.5t62.5 -15.5q27 0 56.5 10.5t54 35t41.5 66t20 102.5v205q0 20 6 36q5 14 16.5 25t32.5 11q20 0 34 -8.5t24 -21.5t16 -28t11 -27q-8 19 -20 36.5t-31 17.5q-11 0 -18 -9
t-7 -35q0 -6 -0.5 -25t-0.5 -46t-0.5 -59t-0.5 -64v-169l-62 -62v79q-32 -36 -76 -57.5t-95 -21.5t-96 22.5t-74 63.5q-9 12 -15 36t-9.5 51.5t-5 54.5t-1.5 44zM523 412q0 1 -0.5 1.5t-0.5 1.5q0 -1 0.5 -1.5t0.5 -1.5z" />
    <glyph glyph-name="v" unicode="v" horiz-adv-x="530" 
d="M96 500l189 -461q60 135 99 221t61 135.5t30.5 69.5t8.5 22q0 8 -12 8h-23v5h71v-5q-11 0 -21 -2.5t-15 -16.5l-212 -476h-95v4h23q11 0 13.5 3.5t0.5 8.5l-177 452q-5 11 -11.5 19t-15.5 13h86z" />
    <glyph glyph-name="w" unicode="w" horiz-adv-x="981" 
d="M10 500h88l187 -461l181 406q12 26 14.5 33t2.5 9q0 8 -11 8h-22v5h69l187 -461l197 440q3 8 1.5 12t-11.5 4h-22v5h70v-5q-10 0 -20.5 -2.5t-15.5 -16.5l-210 -476h-96v4h24q11 0 13.5 3.5t0.5 8.5l-168 425l-196 -440l-95 -1v4h24q10 0 12.5 3.5t0.5 8.5l-178 452
q-8 22 -27 32z" />
    <glyph glyph-name="x" unicode="x" horiz-adv-x="354" 
d="M10 0v7q14 0 29.5 4.5t21.5 24.5l82 186l-94 234q-12 28 -39 44h82l83 -203l78 174q6 12 0.5 18t-14.5 6h-34v5h102v-5q-15 0 -30.5 -4.5t-20.5 -24.5l-78 -178l99 -243q11 -29 37 -45h-82l-86 215l-81 -184q-5 -13 -1 -18.5t13 -5.5h34v-7h-101z" />
    <glyph glyph-name="y" unicode="y" horiz-adv-x="533" 
d="M10 500h114v-5q-16 0 -25.5 -1t-15 -5.5t-7.5 -13t-2 -24.5v-249q0 -39 7.5 -74.5t24 -61.5t42 -41.5t62.5 -15.5q29 0 59.5 11.5t56 38.5t41.5 72.5t16 113.5v59t-0.5 55.5t-0.5 44v24.5q0 3 0.5 14.5t5.5 24.5t16.5 23t32.5 10t35 -9t24 -22t16 -28.5t11 -27.5
q-9 23 -21.5 39.5t-30.5 16.5q-11 0 -18 -9.5t-7 -35.5v-192q0 -37 -13.5 -72t-36 -64t-53 -51t-63.5 -33q-11 -4 -38 -9t-53 -8q8 -1 28 -2.5t47 -5.5t57.5 -11.5t59.5 -21t52.5 -33.5t36.5 -48q25 -55 12.5 -107.5t-49 -94t-89.5 -66.5t-109 -25q-33 0 -64.5 9.5
t-59.5 30.5q-58 44 -79.5 112.5t-21.5 152.5q0 7 0.5 12.5t1.5 10.5t2 9q0 -60 23.5 -113t63 -92t92.5 -61.5t112 -22.5q13 0 25.5 1.5t26.5 3.5q19 3 37.5 14t33.5 27t24 34.5t9 37.5q0 27 -25.5 55t-63 54.5t-80 51t-76 44.5t-51 34t-5.5 21q-50 12 -79.5 36t-45.5 58.5
t-20.5 77.5t-4.5 94v228z" />
    <glyph glyph-name="z" unicode="z" 
d="M80 63l5 -4q-17 -14 -26.5 -21.5t-9.5 -14.5q0 -8 8.5 -12t13.5 -4h370q15 5 9 17l-357 433q-17 20 -27 28.5t-24 8.5q-7 0 -16 -2t-21 -5l39 13h487l-81 -63l-5 4q13 11 20 16.5t10.5 9t4.5 5.5t1 6q0 8 -8.5 11.5t-13.5 3.5h-327l399 -493h-531z" />
    <glyph glyph-name="exclamdown" unicode="&#xa1;" 
d="M88 644q20 0 29.5 -10t14.5 -22q5 -15 5 -33v-579h-57v575q0 23 -7 31t-16 8q-17 0 -26.5 -13.5t-20.5 -36.5q5 11 10.5 24.5t14 26t21.5 21t32 8.5zM106 800q20 0 35.5 -15t15.5 -38q0 -21 -15.5 -36.5t-35.5 -15.5q-23 0 -38.5 15.5t-15.5 36.5q0 23 15.5 38t38.5 15z
" />
    <glyph glyph-name="periodcentered" unicode="&#xb7;" horiz-adv-x="98" 
d="M10 278q0 16 11.5 27.5t28.5 11.5q15 0 26.5 -11.5t11.5 -27.5q0 -17 -11.5 -28t-26.5 -11q-17 0 -28.5 11t-11.5 28z" />
    <glyph glyph-name="questiondown" unicode="&#xbf;" 
d="M14 337q0 -60 23.5 -113t63 -92t92.5 -61.5t112 -22.5q13 0 25.5 1.5t26.5 3.5q19 3 37.5 14t33.5 27t24 34.5t9 37.5q0 28 -22.5 54.5t-56.5 51.5t-73.5 47t-73.5 40.5t-56.5 32.5t-22.5 22q0 6 6.5 10.5t17 7t23.5 3.5t26 1v139q0 23 -7 31t-16 8q-17 0 -26.5 -13.5
t-20.5 -36.5q5 11 10.5 24.5t14 26t21.5 21t32 8.5q20 0 29.5 -10t14.5 -22q5 -15 5 -33v-156l-116 -8q8 -1 29.5 -2.5t50.5 -5.5t62 -11.5t64 -21t56 -33t38 -48.5q25 -55 12.5 -107.5t-49 -94t-89.5 -66.5t-109 -25q-33 0 -64.5 9.5t-59.5 30.5q-58 44 -79.5 112.5
t-21.5 152.5q0 7 0.5 12.5t1.5 10.5t2 9zM255 800q20 0 35.5 -15t15.5 -38q0 -21 -15.5 -36.5t-35.5 -15.5q-23 0 -38.5 15.5t-15.5 36.5q0 23 15.5 38t38.5 15z" />
    <glyph glyph-name="bullet" unicode="&#x2022;" horiz-adv-x="140" 
d="M10 269q0 24 18 42t44 18q23 0 40.5 -18t17.5 -42q0 -26 -17.5 -43t-40.5 -17q-26 0 -44 17t-18 43z" />
    <glyph glyph-name="ellipsis" unicode="&#x2026;" 
d="M322 39q0 16 11.5 27.5t28.5 11.5q15 0 26.5 -11.5t11.5 -27.5q0 -17 -11.5 -28t-26.5 -11q-17 0 -28.5 11t-11.5 28zM206 78q15 0 26.5 -11.5t11.5 -27.5q0 -17 -11.5 -28t-26.5 -11q-17 0 -28.5 11t-11.5 28q0 16 11.5 27.5t28.5 11.5zM10 39q0 16 11.5 27.5t28.5 11.5
q15 0 26.5 -11.5t11.5 -27.5q0 -17 -11.5 -28t-26.5 -11q-17 0 -28.5 11t-11.5 28z" />
    <glyph glyph-name="minus" unicode="&#x2212;" 
 />
  </font>
</defs>
</svg>
